<svg width="17" height="31" viewBox="0 0 17 31" fill="none" xmlns="http://www.w3.org/2000/svg">
<path d="M2.86239 -9.33165e-07C3.61227 0.000174427 4.33137 0.326493 4.86153 0.907182L16.1721 13.292C16.7022 13.8726 17 14.66 17 15.481C17 16.302 16.7022 17.0894 16.1721 17.67L4.86153 30.0548C4.60069 30.3505 4.28868 30.5864 3.94369 30.7486C3.59871 30.9109 3.22767 30.9963 2.85221 30.9999C2.47676 31.0035 2.10442 30.9251 1.75691 30.7694C1.40941 30.6138 1.09369 30.3839 0.8282 30.0931C0.562705 29.8024 0.352743 29.4567 0.210567 29.0762C0.0683905 28.6957 -0.00315577 28.288 0.000106806 27.8769C0.00336939 27.4658 0.0813735 27.0595 0.229567 26.6818C0.377761 26.304 0.593179 25.9624 0.863248 25.6767L10.1747 15.481L0.863248 5.2852C0.467917 4.8522 0.198707 4.30057 0.0896518 3.70005C-0.0194035 3.09953 0.0365904 2.4771 0.250558 1.91142C0.464526 1.34575 0.826861 0.862235 1.29175 0.522012C1.75665 0.181789 2.30322 0.000129802 2.86239 -9.33165e-07Z" fill="#CCCCCC"/>
</svg>
