<svg width="17" height="31" viewBox="0 0 17 31" fill="none" xmlns="http://www.w3.org/2000/svg">
<path d="M14.1376 31C13.3877 30.9998 12.6686 30.6735 12.1385 30.0928L0.827896 17.708C0.297795 17.1274 0 16.34 0 15.519C0 14.698 0.297795 13.9106 0.827896 13.33L12.1385 0.945233C12.3993 0.649514 12.7113 0.413639 13.0563 0.25137C13.4013 0.0891019 13.7723 0.00368934 14.1478 0.000116903C14.5232 -0.00345554 14.8956 0.0748828 15.2431 0.230562C15.5906 0.386242 15.9063 0.616144 16.1718 0.906854C16.4373 1.19756 16.6473 1.54326 16.7894 1.92377C16.9316 2.30428 17.0032 2.71199 16.9999 3.1231C16.9966 3.53421 16.9186 3.94049 16.7704 4.31824C16.6222 4.69599 16.4068 5.03764 16.1368 5.32325L6.82532 15.519L16.1368 25.7148C16.5321 26.1478 16.8013 26.6994 16.9103 27.3C17.0194 27.9005 16.9634 28.5229 16.7494 29.0886C16.5355 29.6543 16.1731 30.1378 15.7082 30.478C15.2434 30.8182 14.6968 30.9999 14.1376 31Z" fill="#CCCCCC"/>
</svg>
